<?xml version="1.0" standalone="no"?>
<!DOCTYPE svg PUBLIC "-//W3C//DTD SVG 20010904//EN"
 "http://www.w3.org/TR/2001/REC-SVG-20010904/DTD/svg10.dtd">
<svg version="1.0" xmlns="http://www.w3.org/2000/svg"
 width="1200.000000pt" height="1200.000000pt" viewBox="0 0 1200.000000 1200.000000"
 preserveAspectRatio="xMidYMid meet">
<metadata>
Created by potrace 1.14, written by Peter Selinger 2001-2017
</metadata>
<g transform="translate(0.000000,1200.000000) scale(0.100000,-0.100000)"
fill="#000000" stroke="none">
<path d="M3290 7270 l0 -2610 2725 0 2725 0 0 2610 0 2610 -2725 0 -2725 0 0
-2610z m5300 5 l0 -2465 -2580 0 -2580 0 0 2465 0 2465 2580 0 2580 0 0 -2465z"/>
<path d="M4218 9434 c-5 -4 -8 -1003 -8 -2221 l0 -2213 265 0 266 0 -3 1720
c-2 945 0 1716 3 1712 4 -4 566 -736 1249 -1627 684 -891 1267 -1651 1298
-1689 85 -107 112 -116 340 -116 l182 0 -2 2218 -3 2217 -260 0 -260 0 0
-1665 c0 -916 3 -1690 7 -1719 7 -54 7 -55 -11 -35 -10 10 -587 759 -1281
1664 -694 905 -1279 1662 -1299 1683 -62 66 -75 70 -286 75 -104 2 -193 1
-197 -4z"/>
<path d="M1910 2740 l0 -620 70 0 70 0 2 477 3 477 359 -467 c197 -257 367
-472 377 -477 10 -6 38 -10 63 -10 l46 0 0 620 0 620 -70 0 -70 0 0 -476 0
-476 -356 463 c-195 255 -363 470 -372 477 -9 6 -40 12 -69 12 l-53 0 0 -620z"/>
<path d="M4498 2743 l-245 -618 68 -3 c38 -2 77 1 87 7 10 5 43 76 78 168 l62
158 278 3 279 2 59 -154 c32 -85 66 -162 75 -171 13 -11 39 -15 90 -15 65 0
72 2 67 18 -9 23 -198 499 -356 897 l-128 320 -84 3 -84 3 -246 -618z m342
419 c0 -9 49 -143 108 -297 l108 -280 -224 -3 c-124 -1 -227 -1 -229 2 -2 2
43 127 101 277 57 151 108 286 111 301 7 29 25 29 25 0z"/>
<path d="M6394 3343 c18 -60 354 -1150 367 -1190 l11 -33 73 0 73 0 167 501
167 501 40 -124 c22 -67 96 -293 165 -500 l124 -378 74 0 74 0 15 48 c12 42
122 394 302 974 35 114 64 209 64 212 0 4 -33 6 -74 6 -69 0 -76 -2 -95 -26
-12 -15 -21 -31 -21 -37 0 -6 -52 -187 -116 -401 -64 -215 -124 -421 -133
-457 l-17 -66 -159 476 c-88 262 -168 484 -177 493 -21 21 -95 24 -121 6 -11
-8 -79 -200 -176 -492 -88 -263 -162 -481 -165 -484 -3 -3 -6 4 -6 15 0 16
-167 596 -266 925 -12 39 -33 48 -115 48 -72 0 -80 -2 -75 -17z"/>
<path d="M9581 3338 c-5 -13 -115 -290 -245 -616 -130 -325 -236 -594 -236
-597 0 -3 33 -5 73 -5 58 0 77 4 89 18 9 9 42 86 74 170 l58 152 277 0 278 0
41 -107 c23 -60 51 -132 62 -161 11 -28 28 -57 38 -62 10 -6 50 -10 88 -10
l70 0 -72 183 c-40 100 -151 379 -246 620 l-174 437 -83 0 c-77 0 -84 -2 -92
-22z m248 -567 c39 -101 70 -186 68 -188 -2 -2 -105 -2 -229 -1 l-225 3 64
165 c62 160 151 400 160 430 3 8 24 -39 48 -105 23 -66 75 -203 114 -304z"/>
</g>
</svg>
